<svg xmlns="http://www.w3.org/2000/svg" width="124" height="140.382" viewBox="0 0 124 140.382">
  <g id="cardio-icon" transform="translate(-817 -1498.618)">
    <ellipse id="Ellipse_3" data-name="Ellipse 3" cx="62" cy="61.5" rx="62" ry="61.5" transform="translate(817 1516)" fill="#2affb6"/>
    <path id="exercise_1_" data-name="exercise (1)" d="M104.843,39.284,74.612,63.536A6.987,6.987,0,0,0,76.66,75.572v30.437a48.24,48.24,0,1,0,96.48,0V75.572a6.987,6.987,0,0,0,2.048-12.036L149.553,42.971a2.308,2.308,0,0,0-.377-3.521A13.216,13.216,0,0,1,143.3,28.441V23.2a7.177,7.177,0,0,0-12.256-5.09l-1.475,1.479a9.194,9.194,0,0,0-13.87,7.944v6.919a9.232,9.232,0,0,0,.291,2.306h-3.964a11.523,11.523,0,0,0-7.184,2.527Zm13.981,2.086a9.145,9.145,0,0,0,6.075,2.306,10.058,10.058,0,0,0,7.069-3.025c.215-.222.413-.449.6-.68a11.49,11.49,0,0,0,6.135,3.473v8.913a6.007,6.007,0,0,1-3.329,5.4,2.307,2.307,0,0,0-1.271,2.063V66.74H115.7V59.821a2.307,2.307,0,0,0-1.271-2.063,6.007,6.007,0,0,1-3.329-5.4V41.439a6.828,6.828,0,0,1,.927-.069Zm10.618-5.185c-.014.6-1.75,2.879-4.543,2.879a4.612,4.612,0,0,1-4.6-4.613V32.144h9.178l-.037,3.959C129.441,36.132,129.442,36.156,129.442,36.184Zm-20.149,69.3-1.429-1.433,1.229-.672Zm-5.638.87,4.746,4.759-3.458,8.67h-1.048l-1.792-12.58Zm11.166,20.348H122.6v13.838h-1.069l-7.777-11.7Zm.67-4.613-2.629-27.677H122.6v27.677ZM127.2,94.417h11.36a9.162,9.162,0,0,1-6.355,7.22l-5.006,1.544ZM138.7,89.8H127.2V80.578h-4.6V89.8H112.424l-.549-5.779a21.207,21.207,0,0,1,2.8-12.672H135.13a25.12,25.12,0,0,1,3.57,12.928ZM77.485,67.138,106.5,43.862v8.5a10.736,10.736,0,0,0,.568,3.446l-22.3,11.181a2.3,2.3,0,0,0-1.028,1.031l-.27.541a5.017,5.017,0,0,1-4.513,2.8,2.368,2.368,0,0,1-1.474-4.215ZM124.9,149.77a43.75,43.75,0,0,1-43.64-43.761V75.685a9.584,9.584,0,0,0,6.252-4.919l21.963-11.012a10.611,10.611,0,0,0,1.625,1.379v7.232a25.843,25.843,0,0,0-3.8,16.1l1.323,13.926L98.5,103.924a2.308,2.308,0,0,0-1.176,2.351l2.3,16.145a2.3,2.3,0,0,0,2.277,1.98h4.6a2.3,2.3,0,0,0,2.135-1.45l1.871-4.69.541,5.7-2,4.021a2.311,2.311,0,0,0,.143,2.311l9.2,13.838a2.3,2.3,0,0,0,1.914,1.027h4.6a2.3,2.3,0,0,0,2.3-2.306V108.007l6.358-1.962A13.765,13.765,0,0,0,143.3,92.818V84.281a29.732,29.732,0,0,0-4.6-15.918V61.134a10.608,10.608,0,0,0,1.625-1.379l21.963,11.012a9.583,9.583,0,0,0,6.252,4.919v30.323A43.75,43.75,0,0,1,124.9,149.77Zm48.3-80.784a2.366,2.366,0,0,1-2.36,2.367,5.017,5.017,0,0,1-4.513-2.8l-.27-.541a2.3,2.3,0,0,0-1.028-1.031l-22.3-11.18a10.735,10.735,0,0,0,.569-3.447v-8.5l29.014,23.276a2.358,2.358,0,0,1,.886,1.848ZM136.121,20.612A2.586,2.586,0,0,1,138.7,23.2v5.243a17.844,17.844,0,0,0,3.491,10.622H141a6.917,6.917,0,0,1-6.9-6.919h-.021l.021-4.613a9.185,9.185,0,0,0-1.278-4.682L134.3,21.37a2.558,2.558,0,0,1,1.823-.757ZM124.9,22.919a4.612,4.612,0,0,1,4.6,4.613h-9.2A4.612,4.612,0,0,1,124.9,22.919Z" transform="translate(754.1 1482.618)" fill="#36334e"/>
  </g>
</svg>
