<svg xmlns="http://www.w3.org/2000/svg" width="63.159" height="52.221" viewBox="0 0 63.159 52.221">
  <g id="Icon_feather-users" data-name="Icon feather-users" transform="translate(1.5 1.5)">
    <path id="Path_21" data-name="Path 21" d="M45.252,38.907V33.438A10.938,10.938,0,0,0,34.314,22.5H12.438A10.938,10.938,0,0,0,1.5,33.438v5.469" transform="translate(-1.5 10.314)" fill="none" stroke="#fff" stroke-linecap="round" stroke-linejoin="round" stroke-width="3"/>
    <path id="Path_22" data-name="Path 22" d="M29.376,15.438A10.938,10.938,0,1,1,18.438,4.5,10.938,10.938,0,0,1,29.376,15.438Z" transform="translate(3.438 -4.5)" fill="none" stroke="#fff" stroke-linecap="round" stroke-linejoin="round" stroke-width="3"/>
    <path id="Path_23" data-name="Path 23" d="M38.2,38.747V33.278A10.938,10.938,0,0,0,30,22.7" transform="translate(21.956 10.475)" fill="none" stroke="#fff" stroke-linecap="round" stroke-linejoin="round" stroke-width="3"/>
    <path id="Path_24" data-name="Path 24" d="M24,4.7a10.938,10.938,0,0,1,0,21.193" transform="translate(17.018 -4.34)" fill="none" stroke="#fff" stroke-linecap="round" stroke-linejoin="round" stroke-width="3"/>
  </g>
</svg>
