<svg id="Icon_ionic-ios-fitness" data-name="Icon ionic-ios-fitness" xmlns="http://www.w3.org/2000/svg" width="66.709" height="38.12" viewBox="0 0 66.709 38.12">
  <path id="Path_16" data-name="Path 16" d="M40.468,23.46H11.879a1.2,1.2,0,0,1-1.191-1.191V17.5a1.2,1.2,0,0,1,1.191-1.191h28.59A1.2,1.2,0,0,1,41.66,17.5v4.765A1.2,1.2,0,0,1,40.468,23.46Z" transform="translate(7.181 -0.826)" fill="#fff"/>
  <path id="Path_17" data-name="Path 17" d="M26.578,43.844V12.276A3.286,3.286,0,0,1,29.854,9h0a3.286,3.286,0,0,1,3.276,3.276V43.844a3.286,3.286,0,0,1-3.276,3.276h0A3.286,3.286,0,0,1,26.578,43.844Z" transform="translate(24.943 -9)" fill="#fff"/>
  <path id="Path_18" data-name="Path 18" d="M33.916,13.5H32.129a1.2,1.2,0,0,0-1.191,1.191V31.369a1.2,1.2,0,0,0,1.191,1.191h1.787a2.987,2.987,0,0,0,2.978-2.978v-13.1A2.987,2.987,0,0,0,33.916,13.5Z" transform="translate(29.816 -3.97)" fill="#fff"/>
  <path id="Path_19" data-name="Path 19" d="M12.88,43.844V12.276A3.286,3.286,0,0,0,9.6,9h0a3.286,3.286,0,0,0-3.276,3.276V43.844A3.286,3.286,0,0,0,9.6,47.12h0A3.286,3.286,0,0,0,12.88,43.844Z" transform="translate(2.308 -9)" fill="#fff"/>
  <path id="Path_20" data-name="Path 20" d="M7.015,13.5H5.228A2.987,2.987,0,0,0,2.25,16.478v13.1A2.987,2.987,0,0,0,5.228,32.56H7.015a1.2,1.2,0,0,0,1.191-1.191V14.691A1.2,1.2,0,0,0,7.015,13.5Z" transform="translate(-2.25 -3.97)" fill="#fff"/>
</svg>
