<svg xmlns="http://www.w3.org/2000/svg" width="124" height="129" viewBox="0 0 124 129">
  <g id="strength-icon" transform="translate(-1378 -1497)">
    <ellipse id="Ellipse_3" data-name="Ellipse 3" cx="62" cy="61.5" rx="62" ry="61.5" transform="translate(1378 1500)" fill="#ff2a6b"/>
    <g id="gym" transform="translate(1380 1497)">
      <g id="Group_3" data-name="Group 3">
        <g id="Group_2" data-name="Group 2">
          <path id="Path_7" data-name="Path 7" d="M117.37,0h-7.957a2.072,2.072,0,0,0-1.989,2.15v4.3H85.541V2.15A2.072,2.072,0,0,0,83.551,0H75.594A2.072,2.072,0,0,0,73.6,2.15v12.9a2.072,2.072,0,0,0,1.989,2.15h7.957a2.072,2.072,0,0,0,1.989-2.15v-4.3h3.517L82.27,45.6a2.042,2.042,0,0,1-1.948,1.7H70.171a17.764,17.764,0,0,0,5.423-12.9c0-9.484-7.14-17.2-15.915-17.2S43.765,24.916,43.765,34.4a17.764,17.764,0,0,0,5.423,12.9H39.036a2.042,2.042,0,0,1-1.948-1.707L30.3,10.75h3.517v4.3a2.072,2.072,0,0,0,1.989,2.15h7.957a2.072,2.072,0,0,0,1.989-2.15V2.15A2.072,2.072,0,0,0,43.765,0H35.808a2.072,2.072,0,0,0-1.989,2.15v4.3H11.936V2.15A2.072,2.072,0,0,0,9.947,0H1.989A2.072,2.072,0,0,0,0,2.15v12.9A2.072,2.072,0,0,0,1.989,17.2H9.947a2.072,2.072,0,0,0,1.989-2.15v-4.3h4.283l6.573,42.615c.8,5.207,4.93,8.985,9.811,8.985H43.765V87.916l-7.912,38.47a2.3,2.3,0,0,0,.39,1.812,1.949,1.949,0,0,0,1.554.8H51.722a2.033,2.033,0,0,0,1.944-1.683L59.68,98.059l6.014,29.255A2.033,2.033,0,0,0,67.637,129H81.562a1.939,1.939,0,0,0,1.552-.8,2.29,2.29,0,0,0,.39-1.812l-7.91-38.468V62.35H86.756c4.882,0,9.008-3.778,9.811-8.985L103.14,10.75h4.283v4.3a2.072,2.072,0,0,0,1.989,2.15h7.957a2.072,2.072,0,0,0,1.989-2.15V2.15A2.072,2.072,0,0,0,117.37,0ZM81.562,12.9H77.583V4.3h3.979ZM37.8,4.3h3.979v8.6H37.8ZM7.957,12.9H3.979V4.3H7.957ZM47.744,34.4c0-7.114,5.353-12.9,11.936-12.9s11.936,5.786,11.936,12.9S66.262,47.3,59.68,47.3,47.744,41.514,47.744,34.4Zm44.9,18.26a6.106,6.106,0,0,1-5.886,5.39H73.6a2.072,2.072,0,0,0-1.989,2.15V88.15a2.438,2.438,0,0,0,.046.467l7.42,36.083H69.232L61.623,87.683a1.964,1.964,0,0,0-3.887,0L50.127,124.7H40.278L47.7,88.617a2.29,2.29,0,0,0,.048-.467V60.2a2.072,2.072,0,0,0-1.989-2.15H32.6a6.106,6.106,0,0,1-5.886-5.39L20.253,10.75h5.984L33.2,46.477A6.123,6.123,0,0,0,39.036,51.6H80.323a6.125,6.125,0,0,0,5.841-5.121L93.124,10.75h5.984ZM115.38,12.9H111.4V4.3h3.979Z" fill="#36334e"/>
        </g>
      </g>
    </g>
  </g>
</svg>
