<svg xmlns="http://www.w3.org/2000/svg" width="124" height="123" viewBox="0 0 124 123">
  <g id="yoga-icon" transform="translate(-290 -1523)">
    <ellipse id="Ellipse_3" data-name="Ellipse 3" cx="62" cy="61.5" rx="62" ry="61.5" transform="translate(290 1523)" fill="#ffdc2a"/>
    <g id="exercise" transform="translate(294 1527.698)">
      <path id="Path_2" data-name="Path 2" d="M113.475,114.408H97.191a7.509,7.509,0,0,0-5.478-5.5l-3.916-.98,4.95-24.006a9.506,9.506,0,0,0-6.2-10.875c-11.075-3.843-7.287-2.142-17.474-4.468,3.545-2.155,8.428-5.238,9.952-6.762,1.785-1.787,7.217-7.227,7.217-12.429a10.844,10.844,0,0,0-1.318-4.818l28.437-28.437a6.539,6.539,0,1,0-9.247-9.247,1.8,1.8,0,0,0,2.547,2.547,2.937,2.937,0,0,1,4.153,4.153L77.673,46.73A1.8,1.8,0,0,0,78.947,49.8c.977,0,1.26-.514,3.248-2.5a6.075,6.075,0,0,1,.446,2.088c0,2.463-2.074,5.789-6.173,9.893-1.458,1.458-8.083,5.56-12.51,8.162l-6.093-.762a1.8,1.8,0,0,0-.447,3.574l6.6.825C79.332,74.839,73.3,72.308,85.4,76.465A5.893,5.893,0,0,1,89.219,83.2L86.928,94.308H81.034l.951-8.335a1.8,1.8,0,0,0-1.627-2c-21.5-1.95-19.48.417-26.857-2.15a14.033,14.033,0,0,1-1.732-.715c-4.4-2.279-5.35-8.88-3.959-12.591a47.157,47.157,0,0,0,5.052-4.155,1.8,1.8,0,0,0-2.47-2.623,40.9,40.9,0,0,1-4.326,3.58c-.453.106-.579.254-2.372,1.432-4.478,2.943-3.61,2.371-26.833,21.891L2.8,98.029a6.23,6.23,0,0,0-2.366,7.479c2.916,7.524,2.911,7.75,3.723,8.9H1.808a1.8,1.8,0,1,0,0,3.6H113.475a1.8,1.8,0,1,0,0-3.6ZM43.629,71.135c-.289,4.555,1.439,9.657,5.2,12.379-6.7,3.116-15.684,6.692-26.708,12.378l-2.036-5.253C37.932,75.637,40.915,73.036,43.629,71.135ZM4.8,101.025l12.28-8.193,1.883,4.859-8.36,5.324a1.8,1.8,0,0,0-.807,1.828l1.662,9.55a4.908,4.908,0,0,1-4.924-3.116l-2.74-7.071a2.649,2.649,0,0,1,1.006-3.18Zm8.751,4.384c8.189-5.215,9.415-6.529,29.836-15.51,3.682-1.619,6.894-3.034,9.686-4.426,7.395,2.348,6.868.366,25.128,1.927-2.621,22.973-1.968,18.5-3.048,22.822a6.223,6.223,0,0,0,.406,4.186H15.112Zm67.682,9a2.665,2.665,0,0,1-2.586-3.312c1.154-4.618.652-1.553,1.98-13.186h5.562L83.92,108.9a1.8,1.8,0,0,0,1.327,2.111l5.592,1.4a3.914,3.914,0,0,1,2.532,2Z" transform="translate(0 -4.974)" fill="#36334e"/>
      <path id="Path_3" data-name="Path 3" d="M254.761,23.166a15.426,15.426,0,0,0,4.121,9.423,63.38,63.38,0,0,1-7.418,18.118,1.8,1.8,0,0,0,3.072,1.881,66.393,66.393,0,0,0,7.405-17.421,16.087,16.087,0,0,0,2.849,1.468l1,.752-2.645,2.645a1.8,1.8,0,0,0,2.547,2.547l23.09-23.09a17.859,17.859,0,0,0,5.265-12.711,1.8,1.8,0,1,0-3.6,0,14.28,14.28,0,0,1-4.21,10.164l-7.821,7.821c0-4.183.308-6.569-1.519-9.787a11.982,11.982,0,0,0-15.766-4.62,6.434,6.434,0,0,0-11.555,1.069l-1.208,3.432a6.289,6.289,0,0,0,6.391,8.308Zm18.427-7.281a9.169,9.169,0,0,1-7.355,3.786,1.805,1.805,0,1,0-.129,3.606,12.888,12.888,0,0,0,9.04-3.682c.1.7.071.255.071,8.769l-5.706,5.706a12.677,12.677,0,0,1-6.188-2.632l1.516-3.762a1.8,1.8,0,0,0-3.342-1.346l-.867,2.152a11.78,11.78,0,0,1-1.911-6.448c0-.229-.025-.167.127-.291a6.329,6.329,0,0,0,1.973-2.782c1.207-3.426,1.447-3.94,1.537-4.931a8.436,8.436,0,0,1,11.233,1.854Zm-21.422.17,1.208-3.432a2.768,2.768,0,0,1,2.627-1.81,2.683,2.683,0,0,1,2.628,3.52c-1.174,3.332-1.251,4.2-2.4,4.857A2.739,2.739,0,0,1,251.766,16.056Z" transform="translate(-192.175 -4.976)" fill="#36334e"/>
      <path id="Path_4" data-name="Path 4" d="M243.727,233.449a1.81,1.81,0,0,0,2.538-.283c.092-.114.183-.228.275-.344a1.8,1.8,0,1,0-2.828-2.231c-.085.107-.169.213-.267.334A1.793,1.793,0,0,0,243.727,233.449Z" transform="translate(-188.331 -179.266)" fill="#36334e"/>
    </g>
  </g>
</svg>
